<svg id="_0313_cleaning_pc" xmlns="http://www.w3.org/2000/svg" viewBox="0 0 500 500" data-imageid="cleaning-computer-28" imageName="Cleaning Computer" class="illustrations_image" style="width: 180px;"><defs><style>.cls-1_cleaning-computer-28{fill:#fff;}.cls-2_cleaning-computer-28{fill:#f4a28c;}.cls-3_cleaning-computer-28{fill:#a5a5a5;}.cls-4_cleaning-computer-28{opacity:.58;}.cls-4_cleaning-computer-28,.cls-5_cleaning-computer-28,.cls-6_cleaning-computer-28,.cls-7_cleaning-computer-28,.cls-8_cleaning-computer-28,.cls-9_cleaning-computer-28,.cls-10_cleaning-computer-28,.cls-11_cleaning-computer-28,.cls-12_cleaning-computer-28,.cls-13_cleaning-computer-28{fill:none;}.cls-5_cleaning-computer-28{opacity:.56;}.cls-14_cleaning-computer-28{fill:#ce8172;}.cls-6_cleaning-computer-28{opacity:.44;}.cls-15_cleaning-computer-28{fill:#e6e6e6;}.cls-7_cleaning-computer-28{opacity:.03;}.cls-8_cleaning-computer-28{opacity:.73;}.cls-9_cleaning-computer-28{opacity:.64;}.cls-10_cleaning-computer-28{opacity:.24;}.cls-11_cleaning-computer-28{opacity:.08;}.cls-12_cleaning-computer-28{opacity:.31;}.cls-13_cleaning-computer-28{opacity:.3;}.cls-16_cleaning-computer-28{fill:#24285b;}.cls-17_cleaning-computer-28{fill:#000001;}.cls-18_cleaning-computer-28{fill:#ffd200;}.cls-19_cleaning-computer-28{fill:#68e1fd;}</style></defs><g id="screen"><polygon class="cls-3_cleaning-computer-28" points="212.38 307.39 193.36 406.56 286.18 406.56 267.16 307.39 212.38 307.39"/><rect class="cls-15_cleaning-computer-28" x="63.59" y="57.95" width="362.36" height="275.1"/><rect class="cls-15_cleaning-computer-28" x="180.67" y="396.76" width="117.62" height="20"/><g class="cls-5_cleaning-computer-28"><rect class="cls-1_cleaning-computer-28" x="63.59" y="57.95" width="362.36" height="248"/></g><circle class="cls-16_cleaning-computer-28" cx="91.41" cy="83.19" r="7.62"/><circle class="cls-19_cleaning-computer-28 targetColor" cx="114.09" cy="83.19" r="7.62"/><circle class="cls-18_cleaning-computer-28" cx="135.46" cy="83.19" r="7.62"/><rect class="cls-15_cleaning-computer-28" x="346.29" y="260.03" width="48.43" height="14.69"/><g class="cls-13_cleaning-computer-28"><rect class="cls-15_cleaning-computer-28" x="346.29" y="105.4" width="48.43" height="132.34"/></g><g class="cls-11_cleaning-computer-28"><path class="cls-17_cleaning-computer-28" d="m383.45,217.62s-25.79,15.84-14.21,34.48c11.57,18.64,16.24,34.5,5.03,36.72-11.21,2.23-29.34,13.66-22.48,44.23h55.45l4.04-50.83-22.3-43.61-5.52-20.99Z"/></g><g class="cls-11_cleaning-computer-28"><ellipse class="cls-17_cleaning-computer-28" cx="235.47" cy="227.96" rx="54.73" ry="8.14"/></g><polygon class="cls-16_cleaning-computer-28" points="193.25 148.97 200.18 227.68 269.74 227.68 275.88 148.97 193.25 148.97"/><path class="cls-19_cleaning-computer-28 targetColor" d="m239.89,126.58s-2.67-13.14,14.66-13.9c17.32-.76,6.13,24.3,13.59,25.1,7.46.8-32.78,13.86-28.25-11.19Z"/><g class="cls-6_cleaning-computer-28"><path class="cls-1_cleaning-computer-28" d="m239.89,126.58s-2.67-13.14,14.66-13.9c17.32-.76,6.13,24.3,13.59,25.1,7.46.8-32.78,13.86-28.25-11.19Z"/></g><rect class="cls-18_cleaning-computer-28" x="184.86" y="143.37" width="99.15" height="11.19" rx="3.82" ry="3.82"/><path class="cls-19_cleaning-computer-28 targetColor" d="m194.85,143.37s-5.33-15.46,5.06-19.19,7.2,9.6,16.52,2.67c9.33-6.93-1.33-10.13,9.33-17.06,10.66-6.93,19.21-6.13,20.93,5.86,1.72,11.99,1.46,15.99,11.05,12.79s22.92,3.73,18.12,14.93h-81.03Z"/><rect class="cls-1_cleaning-computer-28" x="177.01" y="257.03" width="116.88" height="12.99"/><rect class="cls-15_cleaning-computer-28" x="177.01" y="257.03" width="86.29" height="12.99"/></g><g id="sd" class="cls-7_cleaning-computer-28"><ellipse class="cls-17_cleaning-computer-28" cx="252.18" cy="425.73" rx="229.52" ry="16.32"/></g><g id="progression"><rect class="cls-3_cleaning-computer-28" x="18.3" y="157.48" width="121.07" height="128.53"/><path class="cls-1_cleaning-computer-28" d="m50.45,202.95l8.21-16.27v-.13h-9.61v-3.97h14.7v4l-8.24,16.37h-5.06Z"/><path class="cls-1_cleaning-computer-28" d="m74.45,203.45c-1.78,0-3.31-.42-4.59-1.27-1.29-.85-2.28-2.06-2.97-3.65-.7-1.59-1.04-3.5-1.03-5.73s.36-4.13,1.05-5.69,1.68-2.75,2.96-3.57,2.81-1.23,4.59-1.23,3.31.41,4.6,1.23,2.28,2.01,2.98,3.57c.7,1.56,1.04,3.46,1.03,5.69,0,2.24-.35,4.16-1.04,5.75-.7,1.59-1.69,2.81-2.97,3.64s-2.82,1.26-4.6,1.26Zm0-4.03c1.06,0,1.92-.54,2.57-1.63.66-1.08.98-2.75.98-5,0-1.47-.15-2.69-.45-3.64-.3-.96-.71-1.67-1.24-2.14s-1.15-.71-1.86-.71c-1.05,0-1.91.53-2.56,1.6-.65,1.06-.98,2.7-.98,4.9,0,1.49.14,2.73.43,3.71.29.98.71,1.71,1.25,2.19.54.48,1.16.72,1.86.72Z"/><path class="cls-1_cleaning-computer-28" d="m86.73,187.48v-1.07c0-.85.19-1.63.56-2.33.36-.71.89-1.27,1.58-1.7.69-.43,1.53-.64,2.51-.64s1.87.21,2.56.64c.7.43,1.22.99,1.58,1.7.36.71.53,1.48.53,2.33v1.07c0,.85-.17,1.62-.53,2.33-.36.7-.89,1.26-1.59,1.68s-1.55.63-2.55.63-1.85-.21-2.53-.64c-.69-.42-1.21-.99-1.57-1.69-.36-.7-.54-1.47-.54-2.31Zm1.04,15.47l14-20.36h2.71l-14,20.36h-2.71Zm2.16-16.54v1.07c.01.44.12.86.32,1.24s.57.57,1.12.57c.58,0,.98-.19,1.18-.57s.3-.79.28-1.24v-1.07c.01-.44-.08-.86-.27-1.26-.19-.39-.59-.59-1.19-.59-.56,0-.93.2-1.13.61-.2.4-.3.82-.31,1.24Zm7.36,12.73v-1.07c0-.84.18-1.61.54-2.32.36-.71.89-1.28,1.58-1.71.69-.43,1.53-.65,2.53-.65s1.87.21,2.57.64c.7.43,1.22.99,1.58,1.7.35.71.53,1.48.52,2.33v1.07c0,.84-.17,1.61-.53,2.32-.36.71-.89,1.28-1.59,1.71s-1.55.65-2.55.65-1.85-.22-2.54-.65c-.69-.43-1.21-1-1.57-1.71-.36-.71-.54-1.48-.54-2.32Zm3.17-1.07v1.07c0,.42.11.83.32,1.22.2.39.59.59,1.15.59s.97-.19,1.17-.57c.21-.38.3-.79.29-1.24v-1.07c.01-.44-.08-.86-.27-1.26-.2-.39-.59-.59-1.19-.59-.56,0-.94.2-1.15.59-.21.39-.32.81-.32,1.26Z"/><g class="cls-10_cleaning-computer-28"><rect class="cls-1_cleaning-computer-28" x="39.26" y="221.74" width="76.14" height="43.28"/></g></g><g id="cleaner"><path class="cls-19_cleaning-computer-28 targetColor" d="m151.78,425.53s5.91-16-4.51-22.19-19.72,3.1-19.72,3.1c0,0-1.13-15.77-20-13.24-18.87,2.53-7.47,15.49-22.47,13.8s-24.01,7.49-20.35,18.53h87.03Z"/><g class="cls-9_cleaning-computer-28"><path class="cls-1_cleaning-computer-28" d="m151.78,425.53s5.91-16-4.51-22.19-19.72,3.1-19.72,3.1c0,0-1.13-15.77-20-13.24-18.87,2.53-7.47,15.49-22.47,13.8s-24.01,7.49-20.35,18.53h87.03Z"/></g><g id="cleaner-2"><polygon class="cls-2_cleaning-computer-28" points="351.08 177.65 366.43 199.71 355.89 209.74 349.15 188.46 351.08 177.65"/><g class="cls-12_cleaning-computer-28"><path class="cls-14_cleaning-computer-28" d="m350.4,192.64s2.48-1.89,3.43-5.2c0,0,2.17,5.03-.89,12.52l-2.54-7.32Z"/></g><path class="cls-2_cleaning-computer-28" d="m335.5,183.91s3.73,8.34,8.01,12.88c1.74,1.84,4.69,1.93,6.5.17,2.26-2.19,4.68-5.8,3.22-10.52l-1.49-8.3s-1.12-5.17-7.42-5.9c-6.3-.73-11.35,6.7-8.83,11.67Z"/><path class="cls-2_cleaning-computer-28" d="m338.12,189.04l-.51,4.31c-.13,1.07.9,1.9,1.92,1.56l3.37-1.12-4.77-4.75Z"/><path class="cls-16_cleaning-computer-28" d="m333.99,179.71s.79,9.99,13.79,6.31l9.32.29s.76-8.73-3.38-14.68c-4.14-5.95-21.86-6.26-19.74,8.08Z"/><circle class="cls-16_cleaning-computer-28" cx="351.82" cy="159.47" r="14.14"/><path class="cls-2_cleaning-computer-28" d="m347.78,186.03s-1.65-3.11.79-4.15c2.44-1.05,4.85,3.43,1.94,5.59l-2.74-1.43Z"/><path class="cls-19_cleaning-computer-28 targetColor" d="m352.71,211.52s-36.02,30.7-35.45,52.67c.56,21.97,9.29,38.59,9.29,38.59l11.35-4.16s-13.19-37.24,16.18-53.3c29.37-16.05-1.37-33.8-1.37-33.8Z"/><g class="cls-11_cleaning-computer-28"><path class="cls-17_cleaning-computer-28" d="m352.71,211.52s-36.02,30.7-35.45,52.67c.56,21.97,9.29,38.59,9.29,38.59l11.35-4.16s-13.19-37.24,16.18-53.3c29.37-16.05-1.37-33.8-1.37-33.8Z"/></g><path class="cls-18_cleaning-computer-28" d="m340.74,168.25s.04-2.37,6.8-2.37c6.76,0,8.23,5.44,7.25,7.52,0,0-3.89-7.86-14.04-5.15Z"/><path class="cls-19_cleaning-computer-28 targetColor" d="m352.71,211.52l-.77-9.29,14.04-11.26,5.09,7.2s23.64-7.21,33.78,17.3c10.14,24.5-1.41,58.53-1.41,58.53l-42.81,5.97s2.74-7.32-4.97-17.46c-7.71-10.14-21.58-25.91-2.95-50.98Z"/><rect class="cls-16_cleaning-computer-28" x="360.89" y="157.76" width="4.51" height="246.71" transform="translate(382.61 -177.71) rotate(54.69)"/><rect class="cls-18_cleaning-computer-28" x="224.08" y="347.29" width="56.71" height="24.79" transform="translate(400.01 -54.22) rotate(54.69)"/><rect class="cls-16_cleaning-computer-28" x="229.93" y="350.32" width="56.71" height="10.45" transform="translate(399.1 -60.74) rotate(54.69)"/><path class="cls-19_cleaning-computer-28 targetColor" d="m371.07,198.16s17.16-21.29,40.54-23.82c23.38-2.53,32.67,20.56,27.32,53.8l-11.18,3.88s1.04-34.3-11.07-38.24c-12.11-3.94-28.41,50.46-45.61,4.39Z"/><path class="cls-18_cleaning-computer-28" d="m429.08,229.26s-4.51,10.42,3.1,11.83c7.6,1.41,11.42-11.83,11.42-11.83,0,0-1-5.34-4.38-6.33-3.38-.99-10.14,6.33-10.14,6.33Z"/><polygon class="cls-18_cleaning-computer-28" points="318.38 283.62 335.69 281.93 338.64 303.62 325.67 307.28 318.38 283.62"/><polygon class="cls-2_cleaning-computer-28" points="367.63 339.68 342.68 419.69 336.87 419.69 342.28 337.24 367.63 339.68"/><path class="cls-19_cleaning-computer-28 targetColor" d="m337.29,419.69s-3.21,4.06-7.31,3.86-4.7,5.6,1.9,5c2.52-.23,4.54-.63,6.08-1.04,1.83-.49,3.73-.29,5.56.19.57.15,1.22.02,1.88-.75,1.87-2.2-2.73-7.26-2.73-7.26h-5.38Z"/><polygon class="cls-2_cleaning-computer-28" points="389.32 332.2 409.42 413.56 404.45 416.57 366.38 343.23 389.32 332.2"/><path class="cls-19_cleaning-computer-28 targetColor" d="m404.82,416.35s-.64,5.14-4.25,7.09c-3.61,1.95-1.12,7.22,4.21,3.29,2.03-1.5,3.56-2.89,4.66-4.04,1.31-1.37,3.04-2.18,4.86-2.71.57-.17,1.06-.62,1.22-1.62.46-2.85-6.09-4.8-6.09-4.8l-4.6,2.79Z"/><g class="cls-11_cleaning-computer-28"><polygon class="cls-17_cleaning-computer-28" points="318.38 283.62 335.69 281.93 338.64 303.62 325.67 307.28 318.38 283.62"/></g><path class="cls-18_cleaning-computer-28" d="m337.9,298.62s-14.73-2.88-18.11,4.16c-3.38,7.04,4.57,12.39,11.44,9.29,6.87-3.1,9.57-8.32,6.67-13.45Z"/><path class="cls-16_cleaning-computer-28" d="m403.45,273.99v50.12c0,8.75.48,17.49,1.43,26.18l4.14,37.7-80.51-4.37s5.36-67.04,32.12-103.65c0,0,22.39-4.13,42.81-5.97Z"/><polygon class="cls-15_cleaning-computer-28" points="427.24 379.95 468.93 379.95 466.11 424.15 432.31 424.15 427.24 379.95"/><path class="cls-3_cleaning-computer-28" d="m465.83,379.95h-1.12v-13.66c0-9.24-7.52-16.76-16.76-16.76s-16.76,7.52-16.76,16.76v13.66h-1.12v-13.66c0-9.86,8.02-17.88,17.88-17.88s17.88,8.02,17.88,17.88v13.66Z"/><path class="cls-19_cleaning-computer-28 targetColor" d="m266.13,425.53s4.51-26.14-18.59-28.39c-23.1-2.25,1.69-7.19-14.65-22.75-16.34-15.56-27.6-5.44-30.98,4.08-3.38,9.52-2.35,27.12-21.73,15.29-19.39-11.83-35.16-25.35-46.99-9.01-11.83,16.34-36.62,10.03-28.17,40.78h161.11Z"/><g class="cls-6_cleaning-computer-28"><path class="cls-1_cleaning-computer-28" d="m266.13,425.53s4.51-26.14-18.59-28.39c-23.1-2.25,1.69-7.19-14.65-22.75-16.34-15.56-27.6-5.44-30.98,4.08-3.38,9.52-2.35,27.12-21.73,15.29-19.39-11.83-35.16-25.35-46.99-9.01-11.83,16.34-36.62,10.03-28.17,40.78h161.11Z"/></g><g class="cls-11_cleaning-computer-28"><path class="cls-17_cleaning-computer-28" d="m347.24,304.3l56.21-30.31s4.06-13.7,4.77-22.05l-45.07,31.94-9.46,6.71s-5.43,11.29-6.44,13.71Z"/></g></g></g><g id="plant"><g class="cls-4_cleaning-computer-28"><path class="cls-19_cleaning-computer-28 targetColor" d="m59.73,407.95s-14.39-3.93-17.52-17.32c0,0,22.29-4.51,22.93,18.5l-5.41-1.18Z"/></g><g class="cls-8_cleaning-computer-28"><path class="cls-19_cleaning-computer-28 targetColor" d="m61.5,406.53s-10.05-15.89-1.21-30.75c0,0,16.95,10.76,9.42,30.78l-8.21-.03Z"/></g><path class="cls-19_cleaning-computer-28 targetColor" d="m64.09,406.54s5.31-16.78,21.36-19.96c0,0,3.01,10.9-10.4,20.01l-10.97-.05Z"/><polygon class="cls-16_cleaning-computer-28" points="53.66 406.16 56.57 426.11 74.94 426.19 77.65 406.26 53.66 406.16"/></g></svg>